<svg width="20" height="20" viewBox="0 0 20 20" fill="none" xmlns="http://www.w3.org/2000/svg">
<path d="M11.8627 17.5H8.13602C8.08487 17.5001 8.03554 17.519 7.99743 17.5531C7.95931 17.5872 7.93508 17.6342 7.92936 17.685C7.92027 17.7619 7.91582 17.8393 7.91602 17.9167C7.91602 18.4692 8.13552 18.9991 8.52622 19.3898C8.91692 19.7805 9.44682 20 9.99936 20C10.5519 20 11.0818 19.7805 11.4725 19.3898C11.8632 18.9991 12.0827 18.4692 12.0827 17.9167C12.0829 17.8393 12.0784 17.7619 12.0694 17.685C12.064 17.634 12.0399 17.5869 12.0017 17.5527C11.9635 17.5185 11.9139 17.4997 11.8627 17.5Z" fill="white"/>
<path d="M14.2877 3C12.7158 3 11.4404 4.27539 11.4404 5.84737V16.2877H9.54212V5.84737C9.54212 4.27539 8.26674 3 6.69475 3H1V16.2877C1 17.337 1.84902 18.186 2.89825 18.186H8.85623C9.1825 18.7495 9.79053 19.1351 10.4912 19.1351C11.192 19.1351 11.8 18.7495 12.1263 18.186H18.0842C19.1335 18.186 19.9825 17.337 19.9825 16.2877V3H14.2877Z" fill="white"/>
</svg>
