<svg width="20" height="20" viewBox="0 0 20 20" fill="none" xmlns="http://www.w3.org/2000/svg">
<path d="M11.8627 17.5H8.13602C8.08487 17.5001 8.03554 17.519 7.99743 17.5531C7.95931 17.5872 7.93508 17.6342 7.92936 17.685C7.92027 17.7619 7.91582 17.8393 7.91602 17.9167C7.91602 18.4692 8.13552 18.9991 8.52622 19.3898C8.91692 19.7805 9.44682 20 9.99936 20C10.5519 20 11.0818 19.7805 11.4725 19.3898C11.8632 18.9991 12.0827 18.4692 12.0827 17.9167C12.0829 17.8393 12.0784 17.7619 12.0694 17.685C12.064 17.634 12.0399 17.5869 12.0017 17.5527C11.9635 17.5185 11.9139 17.4997 11.8627 17.5Z" fill="white"/>
<path d="M17.8715 16.0633C16.9177 14.1676 16.4195 12.0755 16.4165 9.95333V9.31333C16.4396 8.07193 16.1579 6.84379 15.5963 5.73647C15.0346 4.62914 14.2101 3.6764 13.1948 2.96167C12.6035 2.58047 11.9424 2.32045 11.2498 2.19667V1.25C11.2498 0.918479 11.1181 0.600537 10.8837 0.366117C10.6493 0.131696 10.3313 0 9.99981 0C9.66828 0 9.35034 0.131696 9.11592 0.366117C8.8815 0.600537 8.7498 0.918479 8.7498 1.25V2.2075C7.88543 2.37121 7.07162 2.73572 6.37397 3.27167C5.4847 4.00428 4.77198 4.92791 4.28881 5.97389C3.80564 7.01987 3.56444 8.1613 3.58314 9.31333V9.95333C3.5801 12.0755 3.08189 14.1676 2.12814 16.0633C2.09634 16.1268 2.08128 16.1973 2.08438 16.2682C2.08749 16.3392 2.10866 16.4081 2.14589 16.4685C2.18312 16.529 2.23518 16.5789 2.29711 16.6136C2.35905 16.6482 2.42882 16.6665 2.4998 16.6667H17.4998C17.5709 16.6666 17.6408 16.6483 17.7028 16.6136C17.7649 16.5789 17.817 16.5289 17.8543 16.4683C17.8915 16.4078 17.9127 16.3387 17.9157 16.2676C17.9187 16.1966 17.9035 16.126 17.8715 16.0625V16.0633Z" fill="white"/>
</svg>
