<svg width="32" height="32" viewBox="0 0 32 32" fill="none" xmlns="http://www.w3.org/2000/svg">
<path d="M15.9078 3C14.434 3 13.0205 3.58546 11.9784 4.62759C10.9363 5.66972 10.3508 7.08316 10.3508 8.55695C10.3508 10.0307 10.9363 11.4442 11.9784 12.4863C13.0205 13.5284 14.434 14.1139 15.9078 14.1139C17.3815 14.1139 18.795 13.5284 19.8371 12.4863C20.8792 11.4442 21.4647 10.0307 21.4647 8.55695C21.4647 7.08316 20.8792 5.66972 19.8371 4.62759C18.795 3.58546 17.3815 3 15.9078 3ZM15.9078 17.2893C11.1685 17.2893 4 20.1392 4 24.434V28.4032H27.8155V24.434C27.8155 20.1392 20.647 17.2893 15.9078 17.2893Z" fill="white"/>
</svg>
