<svg width="31" height="31" viewBox="0 0 31 31" fill="none" xmlns="http://www.w3.org/2000/svg">
<path d="M9.55386 6C7.29335 6 5.45935 7.834 5.45935 10.0945C5.45935 12.355 7.29335 14.189 9.55386 14.189C11.8144 14.189 13.6484 12.355 13.6484 10.0945C13.6484 7.834 11.8144 6 9.55386 6ZM20.4726 6C18.212 6 16.378 7.834 16.378 10.0945C16.378 12.355 18.212 14.189 20.4726 14.189C22.7331 14.189 24.5671 12.355 24.5671 10.0945C24.5671 7.834 22.7331 6 20.4726 6ZM20.4726 16.9187C20.0407 16.9187 19.5929 16.9454 19.1397 16.988C20.7498 18.1662 21.8374 19.7283 21.8374 21.6956V25.1077H30.0264V21.6956C30.0264 18.918 24.5671 16.9187 20.4726 16.9187ZM9.55386 16.9187C5.45935 16.9187 0 18.918 0 21.6956V25.1077H19.1077V21.6956C19.1077 18.918 13.6484 16.9187 9.55386 16.9187Z" fill="white"/>
</svg>
