<svg width="31" height="31" viewBox="0 0 31 31" fill="none" xmlns="http://www.w3.org/2000/svg">
<path d="M15.7947 5C14.5825 5 13.4198 5.48157 12.5626 6.33878C11.7054 7.19598 11.2239 8.3586 11.2239 9.57087C11.2239 10.7831 11.7054 11.9458 12.5626 12.803C13.4198 13.6602 14.5825 14.1417 15.7947 14.1417C17.007 14.1417 18.1696 13.6602 19.0268 12.803C19.884 11.9458 20.3656 10.7831 20.3656 9.57087C20.3656 8.3586 19.884 7.19598 19.0268 6.33878C18.1696 5.48157 17.007 5 15.7947 5ZM15.7947 16.7537C11.8964 16.7537 6 19.0979 6 22.6305V25.8954H25.5895V22.6305C25.5895 19.0979 19.693 16.7537 15.7947 16.7537Z" fill="white"/>
</svg>
