<svg width="31" height="31" viewBox="0 0 31 31" fill="none" xmlns="http://www.w3.org/2000/svg">
<path d="M17.2901 25.331H13.6655C13.0001 25.331 12.4573 24.7883 12.4573 24.1228V12.0409C12.4573 11.3755 13.0001 10.8328 13.6655 10.8328H17.2901C17.9555 10.8328 18.4983 11.3755 18.4983 12.0409V24.1228C18.4983 24.7883 17.9555 25.331 17.2901 25.331ZM25.7474 25.331H22.1228C21.4574 25.331 20.9146 24.7883 20.9146 24.1228V7.20819C20.9146 6.54274 21.4574 6 22.1228 6H25.7474C26.4128 6 26.9556 6.54274 26.9556 7.20819V24.1228C26.9556 24.7883 26.4128 25.331 25.7474 25.331ZM8.83275 25.331H5.20819C4.54274 25.331 4 24.7883 4 24.1228V16.8737C4 16.2082 4.54274 15.6655 5.20819 15.6655H8.83275C9.4982 15.6655 10.0409 16.2082 10.0409 16.8737V24.1228C10.0409 24.7883 9.4982 25.331 8.83275 25.331Z" fill="white"/>
</svg>
