<svg width="31" height="31" viewBox="0 0 31 31" fill="none" xmlns="http://www.w3.org/2000/svg">
<path d="M25.3424 5.55483C24.9176 5.13005 24.3295 4.934 23.7372 5.01977C20.9435 5.41187 14.4002 6.32679 8.28174 15.9415L14.9557 22.6114C24.5623 16.497 25.4813 9.94967 25.8775 7.15593C25.9591 6.56368 25.7631 5.97961 25.3424 5.55483ZM15.9605 16.5011C15.0946 16.5011 14.392 15.7986 14.392 14.9327C14.392 14.0668 15.0946 13.3643 15.9605 13.3643C16.8264 13.3643 17.5289 14.0668 17.5289 14.9327C17.5289 15.7986 16.8264 16.5011 15.9605 16.5011ZM20.1429 12.3186C19.277 12.3186 18.5745 11.6161 18.5745 10.7502C18.5745 9.88432 19.277 9.1818 20.1429 9.1818C21.0088 9.1818 21.7113 9.88432 21.7113 10.7502C21.7113 11.6161 21.0088 12.3186 20.1429 12.3186Z" fill="white"/>
<path fill-rule="evenodd" clip-rule="evenodd" d="M11.2554 18.1594L10.5165 18.8983C10.5166 18.8983 10.5053 18.9103 10.4843 18.9405C10.4615 18.9732 10.433 19.0192 10.3996 19.0808C10.3321 19.2055 10.2586 19.3688 10.1818 19.568C10.0281 19.9669 9.88435 20.4493 9.75949 20.9301C9.73562 21.022 9.71264 21.113 9.69058 21.2027C9.78019 21.1806 9.87128 21.1576 9.96317 21.1337C10.4439 21.0089 10.9263 20.8651 11.3252 20.7114C11.5244 20.6346 11.6877 20.5611 11.8125 20.4936C11.874 20.4603 11.92 20.4317 11.9527 20.409C11.9829 20.388 11.9949 20.3767 11.9949 20.3767L12.7338 19.6378L14.2126 21.1165L13.4732 21.8559C13.1 22.229 12.5372 22.4854 12.0773 22.6627C11.574 22.8567 11.0067 23.0233 10.4889 23.1578C9.9671 23.2933 9.4749 23.4015 9.11447 23.4756C8.93371 23.5127 8.78481 23.5416 8.68031 23.5613C8.62804 23.5711 8.58679 23.5787 8.55815 23.5839L8.52481 23.5899L8.51557 23.5916L8.51287 23.592L8.5117 23.5923C8.51158 23.5923 8.51148 23.5923 8.33084 22.5624C7.30095 22.3818 7.30096 22.3817 7.30099 22.3815L7.30167 22.3777L7.30331 22.3684L7.30932 22.3351C7.31452 22.3064 7.3221 22.2652 7.33196 22.2129C7.35167 22.1084 7.38053 21.9595 7.41768 21.7788C7.49178 21.4183 7.5999 20.9261 7.73541 20.4044C7.86991 19.8865 8.03657 19.3192 8.23052 18.816C8.40779 18.356 8.66419 17.7932 9.03737 17.42L9.77673 16.6807L11.2554 18.1594ZM8.33084 22.5624L7.30099 22.3815L7.04346 23.8498L8.5117 23.5923L8.33084 22.5624Z" fill="white"/>
<path d="M9.55641 17.5469H6.3583C5.80691 17.5469 5.31269 17.2202 5.10438 16.7096C4.89199 16.1991 5.01044 15.6191 5.39846 15.231L8.1963 12.3188H11.2555L9.55641 17.5469ZM14.715 25.8955C14.5353 25.8955 14.3556 25.8587 14.1841 25.7893C13.6735 25.581 13.3468 25.0868 13.3468 24.5354V21.1208L18.5748 19.6381V22.8444L15.6259 25.5279C15.3931 25.7648 15.0581 25.8955 14.715 25.8955Z" fill="white"/>
</svg>
