<svg width="804" height="245" viewBox="0 0 804 245" fill="none" xmlns="http://www.w3.org/2000/svg">
<mask id="mask0_2727_45947" style="mask-type:alpha" maskUnits="userSpaceOnUse" x="0" y="0" width="804" height="245">
<rect width="804" height="245" fill="#144EE3"/>
</mask>
<g mask="url(#mask0_2727_45947)">
<rect x="-47.8965" width="899.794" height="434.781" rx="14" fill="#144EE3"/>
<g opacity="0.5">
<line x1="49.1895" y1="-158.913" x2="49.1894" y2="532.364" stroke="white" stroke-opacity="0.6"/>
<line x1="180.205" y1="-158.913" x2="180.205" y2="532.364" stroke="white" stroke-opacity="0.6"/>
<line x1="442.238" y1="-158.913" x2="442.238" y2="532.364" stroke="white" stroke-opacity="0.6"/>
<line x1="704.27" y1="-158.913" x2="704.269" y2="532.364" stroke="white" stroke-opacity="0.6"/>
<line x1="311.223" y1="-158.913" x2="311.223" y2="532.364" stroke="white" stroke-opacity="0.6"/>
<line x1="573.254" y1="-158.913" x2="573.254" y2="532.364" stroke="white" stroke-opacity="0.6"/>
<line x1="114.697" y1="-158.913" x2="114.697" y2="532.364" stroke="white" stroke-opacity="0.6"/>
<line x1="245.713" y1="-158.913" x2="245.713" y2="532.364" stroke="white" stroke-opacity="0.6"/>
<line x1="507.746" y1="-158.913" x2="507.746" y2="532.364" stroke="white" stroke-opacity="0.6"/>
<line x1="769.777" y1="-158.913" x2="769.777" y2="532.364" stroke="white" stroke-opacity="0.6"/>
<line x1="376.73" y1="-158.913" x2="376.73" y2="532.364" stroke="white" stroke-opacity="0.6"/>
<line x1="638.762" y1="-158.913" x2="638.762" y2="532.364" stroke="white" stroke-opacity="0.6"/>
<line x1="-43.3203" y1="29.1177" x2="992.304" y2="29.1177" stroke="white" stroke-opacity="0.6"/>
<line x1="-43.3203" y1="154.805" x2="992.304" y2="154.805" stroke="white" stroke-opacity="0.6"/>
<line x1="-43.3203" y1="217.647" x2="992.304" y2="217.648" stroke="white" stroke-opacity="0.6"/>
<line x1="-43.3203" y1="91.9609" x2="992.304" y2="91.961" stroke="white" stroke-opacity="0.6"/>
<rect x="-60.918" y="-243.78" width="1070.82" height="861.013" rx="14" fill="url(#paint0_radial_2727_45947)" fill-opacity="0.9"/>
</g>
<line x1="704.248" y1="41.5244" x2="704.248" y2="131.49" stroke="url(#paint1_linear_2727_45947)"/>
<line x1="114.617" y1="47.5718" x2="114.617" y2="137.537" stroke="url(#paint2_linear_2727_45947)"/>
<line x1="180.518" y1="161.37" x2="180.518" y2="220.338" stroke="url(#paint3_linear_2727_45947)"/>
<line x1="638.873" y1="161.37" x2="638.873" y2="220.338" stroke="url(#paint4_linear_2727_45947)"/>
</g>
<defs>
<radialGradient id="paint0_radial_2727_45947" cx="0" cy="0" r="1" gradientUnits="userSpaceOnUse" gradientTransform="translate(474.492 186.727) rotate(90) scale(393.692 489.625)">
<stop stop-color="#144EE3" stop-opacity="0"/>
<stop offset="0.497633" stop-color="#144EE3"/>
</radialGradient>
<linearGradient id="paint1_linear_2727_45947" x1="703.748" y1="41.5244" x2="703.748" y2="121.101" gradientUnits="userSpaceOnUse">
<stop stop-color="white"/>
<stop offset="1" stop-color="white" stop-opacity="0"/>
</linearGradient>
<linearGradient id="paint2_linear_2727_45947" x1="114.117" y1="47.5718" x2="114.117" y2="127.149" gradientUnits="userSpaceOnUse">
<stop stop-color="white"/>
<stop offset="1" stop-color="white" stop-opacity="0"/>
</linearGradient>
<linearGradient id="paint3_linear_2727_45947" x1="180.018" y1="161.37" x2="180.018" y2="213.529" gradientUnits="userSpaceOnUse">
<stop stop-color="white"/>
<stop offset="1" stop-color="white" stop-opacity="0"/>
</linearGradient>
<linearGradient id="paint4_linear_2727_45947" x1="638.373" y1="161.37" x2="638.373" y2="213.529" gradientUnits="userSpaceOnUse">
<stop stop-color="white"/>
<stop offset="1" stop-color="white" stop-opacity="0"/>
</linearGradient>
</defs>
</svg>
